<svg width="186" height="130" viewBox="0 0 186 130" fill="none" xmlns="http://www.w3.org/2000/svg">
<rect x="21.5276" y="99.8968" width="48.9061" height="72.5459" rx="5.5" transform="rotate(-86.7504 21.5276 99.8968)" fill="#FFECEC" stroke="#F24645"/>
<rect x="25.1917" y="84.3418" width="48.9061" height="72.5459" rx="5.5" transform="rotate(-75 25.1917 84.3418)" fill="#FFECEC" stroke="#F24645"/>
<rect x="30.347" y="65.7213" width="48.9061" height="72.5459" rx="5.5" transform="rotate(-60 30.347 65.7213)" fill="#FFECEC" stroke="#F24645"/>
<rect x="40.3337" y="48.751" width="48.9061" height="72.5459" rx="5.5" transform="rotate(-45 40.3337 48.751)" fill="#FFECEC" stroke="#F24645"/>
<rect x="53.1752" y="35.1361" width="48.9061" height="72.5459" rx="5.5" transform="rotate(-30 53.1752 35.1361)" fill="#FFECEC" stroke="#F24645"/>
<rect x="70.6959" y="26.5435" width="48.9061" height="72.5459" rx="5.5" transform="rotate(-15 70.6959 26.5435)" fill="#FFECEC" stroke="#F24645"/>
<rect x="88.5001" y="21.0366" width="49" height="72" rx="5.5" fill="#FFECEC" stroke="#F24645"/>
<rect x="106.652" y="22.9224" width="49" height="72" rx="5.5" transform="rotate(15 106.652 22.9224)" fill="#FFECEC" stroke="#F24645"/>
<rect x="124.782" y="27.6098" width="49" height="72" rx="5.5" transform="rotate(30 124.782 27.6098)" fill="#FFECEC" stroke="#F24645"/>
<rect x="141.132" y="36.2569" width="49" height="72" rx="5.5" transform="rotate(45 141.132 36.2569)" fill="#FFECEC" stroke="#F24645"/>
</svg>
