<svg width="186" height="131" viewBox="0 0 186 131" fill="none" xmlns="http://www.w3.org/2000/svg">
<mask id="mask0" mask-type="alpha" maskUnits="userSpaceOnUse" x="0" y="0" width="186" height="131">
<rect y="0.442383" width="186" height="130.558" fill="#C4C4C4"/>
</mask>
<g mask="url(#mask0)">
<path d="M130.712 139.666C130.482 139.741 130.248 139.814 130.01 139.887C130.158 139.778 130.409 139.711 130.712 139.666C133.34 138.809 135.509 137.739 137.667 135.658C141.526 131.936 143.974 127.863 146.43 122.94C149.433 116.922 149.373 109.089 148.524 102.425C147.878 97.3547 146.059 92.5722 144.935 87.6257C144.134 84.105 143.076 80.7074 142.183 77.2197C141.233 73.5099 140.009 70.2078 139.97 66.2852C139.928 62.1213 140.269 59.3118 142.183 55.6809C146.588 47.3255 159.301 45.8406 166.559 49.5034C178.918 55.7401 180.396 70.7257 180.826 84.157C181.086 92.2872 178.681 100.831 175.442 108.074C172.782 114.026 169.817 120.156 164.795 124.063C160.305 127.556 155.367 130.269 150.617 133.28C146.777 135.715 142.865 136.832 138.624 137.938C137.004 138.36 135.271 139.358 133.36 139.358C132.889 139.589 131.587 139.535 130.712 139.666Z" fill="#FFECEC"/>
<path d="M130.01 139.887C132.959 138.988 135.32 137.922 137.667 135.658C141.526 131.936 143.974 127.863 146.43 122.94C149.433 116.922 149.373 109.089 148.524 102.425C147.878 97.3547 146.059 92.5722 144.935 87.6257C144.134 84.105 143.076 80.7074 142.183 77.2197C141.233 73.5099 140.009 70.2078 139.97 66.2852C139.928 62.1213 140.269 59.3118 142.183 55.6809C146.588 47.3255 159.301 45.8406 166.559 49.5034C178.918 55.7401 180.396 70.7257 180.826 84.157C181.086 92.2872 178.681 100.831 175.442 108.074C172.782 114.026 169.817 120.156 164.795 124.063C160.305 127.556 155.367 130.269 150.617 133.28C146.777 135.715 142.865 136.832 138.624 137.938C137.004 138.36 135.271 139.358 133.36 139.358C132.726 139.67 130.584 139.464 130.01 139.887Z" stroke="#F24645" stroke-linecap="round" stroke-linejoin="round"/>
<path d="M31.3662 93.2231C33.4101 87.7091 38.0757 83.5822 43.798 82.2268L93.1288 70.5418C101.513 68.5558 110.101 72.9389 113.411 80.8935L132.923 127.777C137.601 139.016 129.716 151.492 117.558 152.091L34.1445 156.199C21.5442 156.819 12.4111 144.359 16.7959 132.53L31.3662 93.2231Z" fill="#FFECEC" stroke="#F24645"/>
<path d="M48.1939 98.4761C49.9914 91.7802 55.5564 86.7661 62.4027 85.6737L80.1828 82.8368C89.0388 81.4238 97.5388 86.9032 99.9081 95.5526L110.349 133.67C113.632 145.652 103.788 157.165 91.4419 155.785L54.847 151.696C44.1509 150.501 37.0301 140.062 39.8206 129.667L48.1939 98.4761Z" fill="white" stroke="#F24645"/>
<g filter="url(#filter0_d)">
<path d="M63.8771 23.8445L29.8526 42.6136C29.8526 42.6136 24.1756 22.7778 25.7449 15.3017C27.3142 7.82564 33.2714 3.87644 42.3664 6.98189C51.4614 10.0873 63.8771 23.8445 63.8771 23.8445Z" fill="#FFECEC" stroke="#F24645"/>
<path d="M121.267 56.8486L94.3807 28.7927C94.3807 28.7927 112.053 18.1427 119.671 17.7189C127.289 17.295 132.636 22.0349 131.986 31.6453C131.337 41.2558 121.267 56.8486 121.267 56.8486Z" fill="#FFECEC" stroke="#F24645"/>
<path d="M118.232 47.421L102.919 32.1258C102.919 32.1258 112.688 25.4001 117.576 25.1358C122.463 24.8716 125.851 28.4676 125.499 32.6021C125.148 36.7366 118.232 47.421 118.232 47.421Z" fill="#F24645"/>
<path d="M54.31 24.1901L35.5613 34.9731C35.5613 34.9731 31.568 23.8082 32.5713 19.0287C33.5746 14.2492 37.9278 11.9186 41.8389 13.3326C45.75 14.7467 54.31 24.1901 54.31 24.1901Z" fill="#F24645"/>
<path d="M64.6044 102.494L20.473 77.4304C15.9346 74.8529 13.7334 69.4121 15.7341 64.5915C19.7048 55.0243 24.5673 48.2588 32.562 38.3459C40.2823 28.7734 52.2847 21.8422 63.2981 19.3869C73.755 16.8079 88.1931 19.2385 96.9465 24.0887C105.135 28.6259 118.026 40.8074 122.254 50.8787C126.801 61.7111 128.78 70.0869 130.22 79.8564C131.037 85.4022 127.37 90.5883 121.917 91.8877L72.6219 103.634C69.9014 104.283 67.0363 103.875 64.6044 102.494Z" fill="#FFECEC" stroke="#F24645"/>
<path d="M17.2439 61.1916C21.3088 53.3736 23.7682 49.2952 29.54 42.2886L48.1305 44.8863C53.7158 45.6667 57.6109 50.8272 56.8305 56.4125C56.05 61.9978 50.8895 65.893 45.3042 65.1125L17.2439 61.1916Z" fill="#F24645"/>
<path d="M129.77 76.9151C128.451 68.1203 127.518 63.2913 123.915 54.895L104.622 52.4416C98.985 51.7248 93.8195 55.6739 93.0332 61.3016C92.2399 66.9788 96.1991 72.2242 101.876 73.0174L129.77 76.9151Z" fill="#F24645"/>
<path d="M95.1662 23.1723C87.7732 19.8532 76.7234 17.1316 65.8492 18.891C67.6941 28.0942 70.5717 43.2884 70.5717 43.2884C71.8304 48.7059 79.6519 49.6141 82.8838 45.0088L95.1662 23.1723Z" fill="#F24645"/>
<path d="M68.4677 104.654L45.0514 91.2217C43.0825 83.7941 48.7795 77.0275 55.6534 72.0158C64.2402 65.7554 84.2931 68.9286 91.5835 77.0364C97.1233 83.1973 99.4135 91.3054 96.1549 98.3625L68.4677 104.654Z" fill="white" stroke="#F24645"/>
<path d="M69.349 70.2114C71.4956 70.1411 73.3831 70.3968 75.4728 71.0226C77.6659 71.6795 78.2587 74.4684 76.5259 75.9647C75.5049 76.8464 74.4904 77.576 73.3045 78.2946C72.0702 79.0426 70.4753 78.8164 69.5005 77.7521C68.4621 76.6184 67.6718 75.5641 66.9827 74.3562C65.9369 72.523 67.2395 70.2805 69.349 70.2114Z" fill="#F24645"/>
<path d="M46.0702 49.889C45.5241 48.3485 43.9413 47.7152 42.3858 47.6694C40.4596 47.6128 38.3839 48.876 37.379 50.5104C36.5924 51.7899 36.6449 53.4639 36.9304 54.876C37.1961 56.1901 38.0853 57.4862 39.0772 58.3534C40.196 59.3314 41.8317 59.5557 43.2671 59.5542C44.2207 59.5531 45.7912 59.6232 46.6068 59.0424C47.5514 58.3697 48.1848 57.3245 48.5607 56.2489C48.7906 55.5911 49.123 54.6623 48.9097 53.9676C48.8031 53.6202 48.8248 53.2327 48.6917 52.8931C48.593 52.6413 48.4611 52.4295 48.385 52.1643C48.2382 51.6528 47.7917 51.1977 47.5914 50.6967C47.5315 50.5467 47.1218 49.9451 47.0176 49.9306C46.8646 49.9092 45.9506 49.1887 45.9016 49.2905C45.7425 49.6211 45.7637 50.133 45.7132 50.4948C45.6502 50.9457 45.5007 51.3654 45.4375 51.818C45.3351 52.551 45.1609 53.418 44.8666 54.0986C44.6161 54.6783 44.5524 55.1899 44.0419 55.5973C43.4747 56.05 43.0136 56.3473 42.2817 56.5719C41.5768 56.7883 40.974 56.6093 40.2728 56.619C40.0556 56.622 39.7655 56.5794 39.553 56.6092C39.4567 56.6227 39.4222 56.996 39.4914 57.0495C40.0225 57.4599 40.6539 57.4843 41.3191 57.5772C41.8047 57.6451 42.422 57.5568 42.9054 57.4862C43.3023 57.4283 43.7463 57.436 44.1234 57.2882C45.6343 56.696 46.2836 54.8589 46.4871 53.4021C46.5281 53.1087 46.5815 52.0768 46.4603 52.9444C46.3739 53.5627 46.4705 54.1705 46.3833 54.7947C46.311 55.3125 46.2386 55.8303 46.1663 56.3481C46.0726 57.0182 44.9984 57.4754 44.4083 57.5953C43.7916 57.7206 44.0049 57.7184 44.2905 57.4276C44.6175 57.0946 45.0441 56.8884 45.3275 56.5032C45.8042 55.8554 46.2993 55.2717 46.7515 54.6142C46.9433 54.3354 46.9463 53.8718 47.19 53.6415C47.3188 53.5198 47.2331 54.5608 47.2165 54.6792C47.1894 54.8736 47.2016 55.1777 47.0787 55.3408C46.8853 55.5973 46.1153 56.2261 46.8334 55.7604C47.1895 55.5295 48.0824 54.3295 47.9371 55.3699C47.857 55.9431 47.6213 56.1483 47.3114 56.5989" stroke="white" stroke-width="2" stroke-linecap="round" stroke-linejoin="round"/>
<path d="M109.345 59.3154C108.373 58.3352 107.092 57.8668 105.803 57.4347C104.537 57.01 103.449 57.2179 102.233 57.61C101.152 57.9588 100.562 58.4704 100.105 59.4922C99.6698 60.4641 99.2477 61.5389 99.4657 62.6319C99.8481 64.5481 100.682 66.3623 102.413 67.4425C103.457 68.0937 104.428 68.3686 105.66 68.3811C107.045 68.3951 108.252 67.6594 109.533 67.2581C110.506 66.9535 110.888 66.4325 111.282 65.551C111.776 64.4471 111.589 63.5651 111.305 62.4198C111.182 61.9266 110.665 61.2442 110.336 60.8425C109.977 60.4044 109.554 59.9574 109.142 59.5968C109.043 59.5094 108.273 58.9124 108.203 59.0177C107.773 59.6661 107.808 60.8262 107.554 61.5676C107.282 62.3627 106.97 63.1382 106.603 63.9002C106.345 64.4376 105.365 64.944 104.837 65.1564C103.902 65.533 102.712 65.519 101.759 65.3822C101.573 65.3555 101.567 65.4878 101.729 65.5601C102.185 65.7642 102.713 65.7993 103.2 65.8794C104.548 66.1009 105.74 65.9541 106.901 65.2155C107.696 64.7101 108.387 63.9123 108.838 63.0778C109.175 62.452 109.21 62.0319 109.212 61.3736C109.213 60.995 109.003 61.4118 108.983 61.5668C108.909 62.1554 108.9 62.7529 108.824 63.3399C108.702 64.2927 108.593 65.0462 107.631 65.4436C106.928 65.734 106.02 65.9965 105.244 65.9841C105.215 65.9837 105.446 65.7847 105.476 65.7596C105.672 65.5951 105.841 65.4354 106.069 65.3138C106.527 65.07 107.016 64.9958 107.482 64.7859C108.169 64.4765 109.09 63.9989 109.443 63.2776C109.988 62.1656 109.782 64.0479 109.732 64.3921C109.608 65.2594 109.448 66.2699 108.659 66.7903C107.665 67.446 106.833 67.3029 105.71 66.9971C105.421 66.9185 104.076 66.5867 104.998 66.6073C105.47 66.6179 105.926 66.9186 106.413 66.967" stroke="white" stroke-width="2" stroke-linecap="round" stroke-linejoin="round"/>
<path d="M58.4867 84.9114C59.7393 86.3166 60.8427 87.3789 62.5876 88.1911C65.9068 89.736 69.6798 90.5519 73.3262 90.7722C77.1135 91.001 81.0142 90.7957 84.7151 89.9143C85.9121 89.6292 87.5702 89.246 88.3213 88.154" stroke="#F24645" stroke-width="2.67851" stroke-linecap="round" stroke-linejoin="round"/>
</g>
<path d="M170.805 69.8607C153.14 73.2922 151.996 71.0045 140.558 71.0045C140.564 71.0653 143.785 83.3237 143.862 83.3322C159.354 87.8792 167.394 86.7851 180.591 78.3757C180.286 73.6643 179.986 71.0205 178.812 66.3022C175.889 68.3357 174.527 69.1378 170.805 69.8607Z" fill="#F24645"/>
<path d="M146.242 56.7878C144.693 56.5776 143.32 56.4098 141.956 55.5873C142.198 55.0919 143.018 54.1908 143.323 53.7214C143.704 53.1354 144.162 52.7646 144.617 52.2628C145.268 51.5439 146.14 50.9426 146.945 50.4063C147.65 49.9364 148.368 49.478 149.33 49.1262C149.74 48.8898 150.168 48.6444 150.631 48.526C151.092 48.4077 151.48 48.0786 151.939 47.961C152.276 47.8747 152.607 47.784 152.942 47.6786C153.462 47.5144 154.015 47.4457 154.526 47.2863C155.551 46.9664 156.613 47.1843 157.66 47.1843C158.699 47.1843 159.782 47.2765 160.793 47.5021C161.371 47.6308 161.958 47.7174 162.534 47.8355C163.064 47.9441 163.561 48.1747 164.08 48.2984C164.607 48.424 165.157 48.647 165.649 48.879L165.672 48.89C165.918 49.0059 166.217 49.1466 166.476 49.2164C166.752 49.2909 166.963 49.4509 167.233 49.5302C167.661 49.6557 168.076 50.0115 168.473 50.2207C168.883 50.437 169.449 50.7459 169.782 51.068C170.223 51.4957 170.667 51.8545 171.075 52.3234C171.392 52.6872 170.946 52.6313 170.83 52.8334C170.748 52.9763 170.577 53.0456 170.455 53.1708C170.29 53.3397 170.128 53.478 169.935 53.6101C169.407 53.9708 168.785 54.2283 168.182 54.4418C165.599 55.3573 162.901 56.2108 160.177 56.521C158.852 56.672 157.564 57.0354 156.229 57.1565C154.769 57.2889 153.326 57.3163 151.859 57.2271C149.976 57.1127 148.117 57.0423 146.242 56.7878Z" fill="#F24645"/>
<path d="M180.083 93.7537C166.856 95.8652 159.427 95.5805 146.531 93.4995L148.819 105.065C159.379 109.216 165.577 109.306 176.779 104.938C178.443 100.765 179.047 98.2532 180.083 93.7537Z" fill="#F24645"/>
<path d="M170.932 117.011C162.373 116.66 157.429 116.07 148.819 113.833C148.441 116.802 148.136 118.403 147.167 121.205C153.717 124.154 157.541 125.21 165.213 123.746C168.044 121.325 169.191 119.815 170.932 117.011Z" fill="#F24645"/>
</g>
<defs>
<filter id="filter0_d" x="0.491211" y="-3.5332" width="148.118" height="130.982" filterUnits="userSpaceOnUse" color-interpolation-filters="sRGB">
<feFlood flood-opacity="0" result="BackgroundImageFix"/>
<feColorMatrix in="SourceAlpha" type="matrix" values="0 0 0 0 0 0 0 0 0 0 0 0 0 0 0 0 0 0 127 0"/>
<feOffset dy="5"/>
<feGaussianBlur stdDeviation="5"/>
<feColorMatrix type="matrix" values="0 0 0 0 0.94902 0 0 0 0 0.27451 0 0 0 0 0.270588 0 0 0 0.1 0"/>
<feBlend mode="normal" in2="BackgroundImageFix" result="effect1_dropShadow"/>
<feBlend mode="normal" in="SourceGraphic" in2="effect1_dropShadow" result="shape"/>
</filter>
</defs>
</svg>
