<svg width="222" height="63" viewBox="0 0 222 63" fill="none" xmlns="http://www.w3.org/2000/svg">
<path d="M83.7541 0C83.2818 0.00121568 82.8292 0.189371 82.4953 0.523331C82.1613 0.857292 81.9731 1.30989 81.9719 1.78218V3.76699C81.9719 3.79922 81.9719 3.83146 81.9719 3.8683V11.6279C81.9634 14.252 80.9169 16.7661 79.061 18.6212C77.205 20.4763 74.6904 21.5216 72.0663 21.5289H55.4787C52.855 21.5216 50.3409 20.4761 48.4857 18.6209C46.6305 16.7657 45.585 14.2516 45.5777 11.6279V3.8683C45.5777 3.7762 45.5777 3.6887 45.5777 3.6012V1.79139C45.5544 1.33379 45.3563 0.902618 45.0242 0.58696C44.6921 0.271301 44.2514 0.0952862 43.7932 0.0952862C43.335 0.0952862 42.8943 0.271301 42.5622 0.58696C42.2301 0.902618 42.032 1.33379 42.0087 1.79139V10.5043C42.0087 11.1479 42.0088 10.851 42.0089 11.5128C42.0186 14.8197 43.1752 18.9554 45.5136 21.2937C47.8519 23.6321 51.0205 24.95 54.3274 24.9597H73.061C76.3683 24.9512 79.5376 23.6336 81.8762 21.2951C84.2148 18.9565 85.5324 15.7871 85.5409 12.4799C85.5409 12.2634 85.5409 12.0516 85.5409 11.8398C85.5409 11.7845 85.5409 11.7338 85.5409 11.6786V1.79139C85.5415 1.55636 85.4957 1.32352 85.4062 1.1062C85.3167 0.888888 85.1852 0.691371 85.0192 0.524964C84.8532 0.358558 84.656 0.226532 84.4389 0.13645C84.2219 0.0463679 83.9891 -7.806e-07 83.7541 0Z" fill="#F24645"/>
<path d="M86.676 37.8213H64.903C63.0805 37.8286 61.3348 38.5558 60.0461 39.8444C58.7574 41.1331 58.0302 42.8789 58.0229 44.7013V61.1923C58.0254 61.6601 58.2126 62.108 58.5439 62.4384C58.8751 62.7687 59.3235 62.9548 59.7913 62.956C60.2587 62.9548 60.7066 62.7686 61.0371 62.4381C61.3676 62.1076 61.5539 61.6597 61.5551 61.1923V51.6781H64.6773C64.8118 51.676 64.9452 51.6543 65.0734 51.6136H90.0285V61.1923C90.0285 61.66 90.2143 62.1087 90.5451 62.4394C90.8759 62.7702 91.3245 62.956 91.7923 62.956C92.26 62.956 92.7087 62.7702 93.0394 62.4394C93.3702 62.1087 93.556 61.66 93.556 61.1923V44.7013C93.5488 42.8789 92.8216 41.1331 91.5329 39.8444C90.2442 38.5558 88.4984 37.8286 86.676 37.8213ZM90.0285 48.0999H61.5505V44.8441C61.5505 43.922 61.9168 43.0376 62.5688 42.3856C63.2209 41.7335 64.1052 41.3672 65.0273 41.3672H86.6622C87.5522 41.3697 88.4052 41.724 89.035 42.3529C89.6648 42.9818 90.0203 43.8343 90.0239 44.7244L90.0285 48.0999Z" fill="#F24645"/>
<path d="M134.654 37.8262H133.494C133.383 37.8061 133.271 37.7953 133.158 37.7939H113.452C113.34 37.7951 113.227 37.8059 113.116 37.8262H110.524C108.693 37.8323 106.94 38.562 105.646 39.8561C104.352 41.1502 103.622 42.9037 103.616 44.7339C103.618 45.0419 103.64 45.3495 103.68 45.6549C103.64 45.8051 103.618 45.9598 103.616 46.1154V61.1096C103.604 61.3516 103.641 61.5936 103.725 61.8208C103.809 62.048 103.938 62.2557 104.105 62.4313C104.272 62.6069 104.473 62.7467 104.696 62.8423C104.918 62.9378 105.158 62.9871 105.4 62.9871C105.643 62.9871 105.882 62.9378 106.105 62.8423C106.328 62.7467 106.529 62.6069 106.696 62.4313C106.862 62.2557 106.992 62.048 107.076 61.8208C107.16 61.5936 107.197 61.3516 107.185 61.1096V51.6461H127.691L138.518 62.4774C138.853 62.812 139.307 63 139.78 63C140.014 63 140.246 62.9539 140.463 62.8642C140.679 62.7745 140.876 62.6431 141.042 62.4774C141.207 62.3117 141.339 62.1149 141.429 61.8984C141.518 61.6819 141.564 61.4499 141.564 61.2156C141.564 60.9812 141.518 60.7492 141.429 60.5327C141.339 60.3162 141.207 60.1195 141.042 59.9538L132.753 51.6646H134.668C136.5 51.6646 138.257 50.9368 139.553 49.6413C140.848 48.3459 141.576 46.5889 141.576 44.7569C141.576 42.9203 140.847 41.1589 139.549 39.8594C138.251 38.5599 136.491 37.8286 134.654 37.8262ZM137.993 44.7339C137.991 45.6235 137.636 46.476 137.007 47.105C136.378 47.7341 135.526 48.0886 134.636 48.091H107.185V44.8674C107.185 43.9453 107.551 43.0609 108.203 42.4089C108.855 41.7569 109.74 41.3905 110.662 41.3905H134.636C135.526 41.393 136.378 41.7474 137.007 42.3765C137.636 43.0056 137.991 43.8581 137.993 44.7477V44.7339Z" fill="#F24645"/>
<path d="M129.587 0.0649507H128.426C128.318 0.0453726 128.209 0.0345919 128.099 0.0327148H108.385C108.272 0.0338676 108.159 0.044652 108.048 0.0649507H105.456C103.624 0.0649507 101.867 0.792721 100.571 2.08816C99.2758 3.3836 98.548 5.1406 98.548 6.97263C98.5503 7.28068 98.5718 7.58829 98.6125 7.89365C98.572 8.04389 98.5504 8.19858 98.548 8.35416V23.3484C98.5713 23.806 98.7694 24.2372 99.1015 24.5528C99.4337 24.8685 99.8743 25.0445 100.333 25.0445C100.791 25.0445 101.231 24.8685 101.563 24.5528C101.896 24.2372 102.094 23.806 102.117 23.3484V13.8849H122.624L133.45 24.7161C133.616 24.8818 133.813 25.0133 134.029 25.103C134.246 25.1926 134.478 25.2388 134.712 25.2388C134.946 25.2388 135.178 25.1926 135.395 25.103C135.611 25.0133 135.808 24.8818 135.974 24.7161C136.14 24.5504 136.271 24.3537 136.361 24.1372C136.45 23.9207 136.496 23.6887 136.496 23.4543C136.496 23.22 136.45 22.988 136.361 22.7715C136.271 22.555 136.14 22.3582 135.974 22.1925L127.685 13.9033H129.6C131.432 13.9033 133.189 13.1756 134.485 11.8801C135.78 10.5847 136.508 8.82768 136.508 6.99565C136.511 6.08542 136.334 5.18357 135.988 4.34193C135.641 3.50029 135.131 2.73546 134.488 2.0914C133.845 1.44734 133.081 0.936749 132.24 0.588982C131.398 0.241214 130.497 0.0631251 129.587 0.0649507ZM132.925 6.97263C132.923 7.86224 132.568 8.71473 131.939 9.34379C131.31 9.97285 130.458 10.3273 129.568 10.3298H102.117V7.10617C102.117 6.18405 102.483 5.2997 103.135 4.64766C103.787 3.99562 104.672 3.62931 105.594 3.62931H129.568C130.458 3.63174 131.31 3.98622 131.939 4.61528C132.568 5.24433 132.923 6.09682 132.925 6.98644V6.97263Z" fill="#F24645"/>
<path d="M151.455 25.4073C151.927 25.4061 152.38 25.2179 152.714 24.884C153.048 24.55 153.236 24.0974 153.237 23.6251V2.15607C153.214 1.69847 153.016 1.26729 152.683 0.951634C152.351 0.635976 151.911 0.459961 151.452 0.459961C150.994 0.459961 150.554 0.635976 150.221 0.951634C149.889 1.26729 149.691 1.69847 149.668 2.15607V23.6251C149.67 24.0978 149.86 24.5504 150.194 24.8843C150.529 25.2181 150.982 25.4061 151.455 25.4073Z" fill="#F24645"/>
<path d="M163.376 37.7939H153.056C152.646 37.7952 152.253 37.9586 151.963 38.2485C151.673 38.5384 151.51 38.9313 151.509 39.3413V61.0636C151.51 61.5359 151.698 61.9885 152.032 62.3224C152.366 62.6564 152.819 62.8446 153.291 62.8458H163.376C166.682 62.8361 169.85 61.5187 172.188 59.1814C174.527 56.8441 175.845 53.6766 175.856 50.3705V50.2738C175.846 46.9669 174.528 43.7983 172.19 41.46C169.852 39.1216 166.683 37.8037 163.376 37.7939ZM171.458 50.7758C171.452 52.9984 170.567 55.1283 168.996 56.7004C167.424 58.2725 165.295 59.159 163.072 59.1663H156.303C155.994 59.1615 155.699 59.0418 155.474 58.8305C155.249 58.6193 155.111 58.3318 155.087 58.0242V42.2885C155.116 42.0361 155.237 41.8031 155.426 41.6335C155.615 41.4638 155.86 41.3692 156.114 41.3675H163.095C165.312 41.3772 167.436 42.2616 169.005 43.8284C170.573 45.3953 171.46 47.518 171.472 49.735L171.458 50.7758Z" fill="#F24645"/>
<path d="M208.673 25.2365C212.012 25.2268 215.213 23.8957 217.574 21.5341C219.936 19.1725 221.267 15.9722 221.277 12.6323C221.266 9.29327 219.934 6.09416 217.573 3.73351C215.211 1.37286 212.012 0.0424371 208.673 0.0327236L175.792 0.0327148C172.453 0.0424344 169.254 1.37301 166.893 3.73379C164.533 6.09457 163.202 9.29368 163.192 12.6323C163.202 15.9714 164.533 19.171 166.893 21.5325C169.254 23.894 172.453 25.2256 175.792 25.2365L208.673 25.2365ZM167.323 12.752C167.329 10.3894 168.271 8.12521 169.941 6.45455C171.612 4.78388 173.876 3.84262 176.239 3.83654L208.3 3.83655C210.662 3.84263 212.926 4.78389 214.597 6.45456C216.268 8.12522 217.209 10.3894 217.215 12.7521C217.208 15.1144 216.266 17.3778 214.596 19.0482C212.925 20.7186 210.662 21.6603 208.3 21.6676L176.239 21.6676C173.876 21.6603 171.613 20.7186 169.943 19.0482C168.272 17.3778 167.33 15.1143 167.323 12.752Z" fill="#F24645"/>
<path d="M190.295 41.4452H219.768C220.241 41.444 220.694 41.256 221.029 40.9222C221.363 40.5884 221.552 40.1358 221.555 39.6631C221.552 39.1899 221.363 38.7369 221.029 38.4023C220.694 38.0677 220.241 37.8787 219.768 37.8763H210.355C210.038 37.8153 209.716 37.7845 209.393 37.7842H188.518C187.155 37.7878 185.848 38.3309 184.885 39.2948C183.921 40.2587 183.378 41.565 183.374 42.9281V46.5477C183.376 47.8708 183.887 49.1423 184.801 50.0991C185.715 51.0558 186.961 51.6244 188.283 51.687H214.394C215.282 51.6894 216.132 52.0428 216.76 52.67C217.388 53.2972 217.743 54.1473 217.746 55.0349V56.0389C217.743 56.9265 217.388 57.7766 216.76 58.4038C216.132 59.031 215.282 59.3844 214.394 59.3868H188.03C187.938 59.3868 187.841 59.3868 187.749 59.3868H185.161C184.919 59.3745 184.677 59.4115 184.45 59.4956C184.222 59.5798 184.015 59.7092 183.839 59.8762C183.663 60.0431 183.524 60.2439 183.428 60.4666C183.332 60.6892 183.283 60.929 183.283 61.1713C183.283 61.4135 183.332 61.6533 183.428 61.8759C183.524 62.0986 183.663 62.2995 183.839 62.4664C184.015 62.6333 184.222 62.7627 184.45 62.8469C184.677 62.931 184.919 62.968 185.161 62.9557H216.181C217.544 62.9521 218.85 62.409 219.814 61.4451C220.778 60.4812 221.321 59.175 221.325 57.8118V53.2988C221.32 51.9365 220.776 50.6314 219.812 49.6685C218.849 48.7056 217.543 48.1631 216.181 48.1595H190.295C189.406 48.1595 188.553 47.8063 187.925 47.1776C187.296 46.5489 186.943 45.6961 186.943 44.807C186.943 43.9178 187.296 43.0651 187.925 42.4364C188.553 41.8077 189.406 41.4545 190.295 41.4545V41.4452Z" fill="#F24645"/>
<path d="M12.4891 3.54597H28.7774C29.2489 3.54598 29.7013 3.35963 30.036 3.02753C30.3707 2.69542 30.5605 2.24449 30.5642 1.773C30.5605 1.30151 30.3707 0.85058 30.036 0.518475C29.7013 0.18637 29.2489 1.7114e-05 28.7774 3.12081e-05L12.5489 3.12081e-05C9.23841 -0.00735492 6.05967 1.2966 3.708 3.6267C1.35633 5.9568 0.0231254 9.12338 0 12.4338C0.0231055 15.7403 1.35314 18.9034 3.69983 21.2329C6.04653 23.5623 9.21937 24.869 12.5259 24.8677L28.7774 24.8677C29.2476 24.8677 29.6986 24.6809 30.0311 24.3484C30.3635 24.0159 30.5503 23.5649 30.5503 23.0947C30.5503 22.6245 30.3635 22.1735 30.0311 21.841C29.6986 21.5085 29.2476 21.3217 28.7774 21.3217L12.4891 21.3217C11.3034 21.3487 10.1242 21.1384 9.02088 20.7033C7.91755 20.2682 6.9123 19.617 6.06417 18.788C5.21604 17.9589 4.54213 16.9687 4.08204 15.8756C3.62194 14.7824 3.38493 13.6084 3.38493 12.4223C3.38493 11.2363 3.62194 10.0622 4.08204 8.96909C4.54213 7.87595 5.21604 6.88576 6.06417 6.05671C6.9123 5.22765 7.91755 4.57645 9.02088 4.14133C10.1242 3.70622 11.3034 3.49597 12.4891 3.52295V3.54597Z" fill="#F24645"/>
<path d="M12.4291 41.4465L46.1202 41.4463C46.5904 41.4463 47.0413 41.2595 47.3738 40.927C47.7063 40.5945 47.8931 40.1436 47.8931 39.6734C47.8931 39.2031 47.7063 38.7522 47.3738 38.4197C47.0413 38.0872 46.5904 37.9004 46.1202 37.9004L12.466 37.9006C9.16525 37.9006 5.99973 39.2118 3.66578 41.5457C1.33183 43.8797 0.0206299 47.0452 0.0206299 50.3459C0.0206299 53.6466 1.33183 56.8121 3.66578 59.1461C5.99973 61.48 9.16525 62.7912 12.466 62.7912L46.1202 62.791C46.5904 62.791 47.0413 62.6042 47.3738 62.2717C47.7063 61.9393 47.8931 61.4883 47.8931 61.0181C47.8931 60.5478 47.7063 60.0969 47.3738 59.7644C47.0413 59.4319 46.5904 59.2451 46.1202 59.2451L12.4291 59.2453C11.2434 59.2722 10.0642 59.062 8.96092 58.6269C7.85759 58.1918 6.85234 57.5406 6.00421 56.7115C5.15608 55.8824 4.48217 54.8923 4.02208 53.7991C3.56198 52.706 3.32497 51.5319 3.32497 50.3459C3.32497 49.1599 3.56198 47.9858 4.02208 46.8926C4.48217 45.7995 5.15608 44.8093 6.00421 43.9803C6.85234 43.1512 7.85759 42.5 8.96092 42.0649C10.0642 41.6298 11.2434 41.4195 12.4291 41.4465Z" fill="#F24645"/>
</svg>
