<svg width="197" height="124" viewBox="0 0 197 124" fill="none" xmlns="http://www.w3.org/2000/svg">
<mask id="mask0" mask-type="alpha" maskUnits="userSpaceOnUse" x="0" y="0" width="197" height="124">
<rect width="197" height="124" fill="#C4C4C4"/>
</mask>
<g mask="url(#mask0)">
<rect x="0.5" y="0.5" width="196" height="123" rx="5.5" fill="white" stroke="#F24645"/>
<path d="M152.5 0.5L191 0.5C194.038 0.5 196.5 2.96243 196.5 6V118C196.5 121.038 194.038 123.5 191 123.5H152.5V0.5Z" fill="#FFECEC" stroke="#F24645"/>
<path d="M0.5 6C0.5 2.96244 2.96243 0.5 6 0.5L44.5 0.5L44.5 123.5H6C2.96243 123.5 0.5 121.038 0.5 118L0.5 6Z" fill="#FFECEC" stroke="#F24645"/>
<rect x="10.5" y="-10.5" width="23" height="31" rx="2.5" fill="#FFECEC" stroke="#F24645"/>
<rect x="162.5" y="-10.5" width="23" height="31" rx="2.5" fill="#FFECEC" stroke="#F24645"/>
<rect x="163" y="10" width="22" height="10" fill="#F24645"/>
<rect x="10.5" y="27.5" width="23" height="31" rx="2.5" fill="#FFECEC" stroke="#F24645"/>
<rect x="162.5" y="27.5" width="23" height="31" rx="2.5" fill="#FFECEC" stroke="#F24645"/>
<rect x="10.5" y="65.5" width="23" height="31" rx="2.5" fill="#F24645" fill-opacity="0.5" stroke="#F24645"/>
<rect x="162.5" y="65.5" width="23" height="31" rx="2.5" fill="#FFECEC" stroke="#F24645"/>
<rect x="10.5" y="103.5" width="23" height="31" rx="2.5" fill="#FFECEC" stroke="#F24645"/>
<rect x="162.5" y="103.5" width="23" height="31" rx="2.5" fill="#FFECEC" stroke="#F24645"/>
<rect x="0.5" y="0.5" width="196" height="123" rx="5.5" stroke="#F24645"/>
<rect x="163" y="86" width="22" height="10" fill="#F24645"/>
</g>
<g filter="url(#filter0_d)">
<path d="M29 86.5903V102.605L32.2245 99.4739L34.4795 104.815L38.0845 103.28L35.9841 98.2093H40.591L29 86.5903Z" fill="white"/>
</g>
<path d="M30 100.186V88.9976L38.165 97.1806H34.4712L36.751 102.599L34.907 103.373L32.5373 97.7363L30 100.186Z" fill="#F24645"/>
<rect x="163" y="48" width="22" height="10" fill="#F24645"/>
<defs>
<filter id="filter0_d" x="26" y="84.5903" width="17.591" height="24.2243" filterUnits="userSpaceOnUse" color-interpolation-filters="sRGB">
<feFlood flood-opacity="0" result="BackgroundImageFix"/>
<feColorMatrix in="SourceAlpha" type="matrix" values="0 0 0 0 0 0 0 0 0 0 0 0 0 0 0 0 0 0 127 0"/>
<feOffset dy="1"/>
<feGaussianBlur stdDeviation="1.5"/>
<feColorMatrix type="matrix" values="0 0 0 0 0.94902 0 0 0 0 0.27451 0 0 0 0 0.270588 0 0 0 0.6 0"/>
<feBlend mode="normal" in2="BackgroundImageFix" result="effect1_dropShadow"/>
<feBlend mode="normal" in="SourceGraphic" in2="effect1_dropShadow" result="shape"/>
</filter>
</defs>
</svg>
